# xmcd
#
# Track frame offsets:
#	151
#	30080
#	51722
#	75101
#	94632
#	120153
#	150630
#	175428
#	202221
#	227497
#	257310
#
# Disc length: 3718 seconds
#
# Revision: 1
# Processed by: cddbd v1.5.2PL0 Copyright (c) Steve Scherf et al.
# Submitted via: audiograbber 1.83.01
#
DISCID=780e840b
DTITLE=Maximum Razorlight - The unauthorised biography of razorlight
DYEAR=2006
DGENRE=
TTITLE0=Intro - The rock n' roll dream
TTITLE1=Son of the city
TTITLE2=Mixing the medicine
TTITLE3=Golden boys
TTITLE4=Looking for the night
TTITLE5=Better than dylan?
TTITLE6=New kid on the scene
TTITLE7=The world is watching
TTITLE8=Scandal and lies
TTITLE9=A new morning
TTITLE10=Up to the end
EXTD=
EXTT0=
EXTT1=
EXTT2=
EXTT3=
EXTT4=
EXTT5=
EXTT6=
EXTT7=
EXTT8=
EXTT9=
EXTT10=
PLAYORDER=
